<svg xmlns="http://www.w3.org/2000/svg" viewBox="0 0 200 150">
  <!-- 背景 -->
  <rect width="200" height="150" fill="#98FB98"/>
  <ellipse cx="100" cy="135" rx="90" ry="15" fill="#228B22"/>

  <!-- 青蛙身体 -->
  <ellipse cx="100" cy="100" rx="50" ry="35" fill="#32CD32"/>

  <!-- 青蛙头部 -->
  <ellipse cx="100" cy="60" rx="45" ry="30" fill="#32CD32"/>

  <!-- 青蛙眼睛 -->
  <circle cx="70" cy="40" r="18" fill="white" stroke="#228B22" stroke-width="3"/>
  <circle cx="130" cy="40" r="18" fill="white" stroke="#228B22" stroke-width="3"/>
  <circle cx="72" cy="40" r="8" fill="black"/>
  <circle cx="132" cy="40" r="8" fill="black"/>
  <circle cx="74" cy="38" r="3" fill="white"/>
  <circle cx="134" cy="38" r="3" fill="white"/>

  <!-- 青蛙嘴巴 -->
  <path d="M60,70 Q100,85 140,70" stroke="#228B22" stroke-width="3" fill="none"/>

  <!-- 青蛙腿 -->
  <ellipse cx="55" cy="125" rx="20" ry="12" fill="#32CD32"/>
  <ellipse cx="145" cy="125" rx="20" ry="12" fill="#32CD32"/>

  <!-- 青蛙脚 -->
  <path d="M40,130 L35,140 L45,140 Z" fill="#32CD32"/>
  <path d="M50,132 L50,142 L60,142 Z" fill="#32CD32"/>
  <path d="M140,130 L135,140 L145,140 Z" fill="#32CD32"/>
  <path d="M150,132 L150,142 L160,142 Z" fill="#32CD32"/>
</svg>