<svg xmlns="http://www.w3.org/2000/svg" viewBox="0 0 200 150">
  <!-- 背景 -->
  <rect width="200" height="150" fill="#87CEEB"/>
  <ellipse cx="100" cy="135" rx="80" ry="12" fill="#90EE90"/>

  <!-- 葡萄梗 -->
  <path d="M 100 40 L 100 25" stroke="#8B4513" stroke-width="3" stroke-linecap="round"/>
  <path d="M 100 25 L 90 15" stroke="#228B22" stroke-width="3" stroke-linecap="round"/>
  <ellipse cx="88" cy="15" rx="10" ry="5" fill="#228B22" transform="rotate(-30 88 15)"/>

  <!-- 葡萄果实 -->
  <circle cx="100" cy="50" r="12" fill="#9370DB"/>
  <circle cx="88" cy="62" r="12" fill="#9370DB"/>
  <circle cx="112" cy="62" r="12" fill="#9370DB"/>
  <circle cx="100" cy="74" r="12" fill="#9370DB"/>
  <circle cx="88" cy="86" r="12" fill="#9370DB"/>
  <circle cx="112" cy="86" r="12" fill="#9370DB"/>
  <circle cx="100" cy="98" r="12" fill="#9370DB"/>
  <circle cx="88" cy="110" r="12" fill="#9370DB"/>
  <circle cx="112" cy="110" r="12" fill="#9370DB"/>

  <!-- 葡萄高光 -->
  <circle cx="96" cy="46" r="3" fill="#DDA0DD" opacity="0.6"/>
  <circle cx="84" cy="58" r="3" fill="#DDA0DD" opacity="0.6"/>
  <circle cx="108" cy="58" r="3" fill="#DDA0DD" opacity="0.6"/>
  <circle cx="96" cy="70" r="3" fill="#DDA0DD" opacity="0.6"/>
</svg>
