<svg xmlns="http://www.w3.org/2000/svg" viewBox="0 0 200 150">
 <!-- 背景 - 夜空 -->
 <rect width="200" height="150" fill="#191970"/>

 <!-- 星星 -->
 <polygon points="30,20 32,26 38,26 33,30 35,36 30,32 25,36 27,30 22,26 28,26" fill="#FFD700"/>
 <polygon points="160,15 162,21 168,21 163,25 165,31 160,27 155,31 157,25 152,21 158,21" fill="#FFD700" transform="scale(0.8)"/>
 <polygon points="80,30 82,36 88,36 83,40 85,46 80,42 75,46 77,40 72,36 78,36" fill="#FFD700" transform="scale(0.6)"/>
 <polygon points="150,60 152,66 158,66 153,70 155,76 150,72 145,76 147,70 142,66 148,66" fill="#FFD700" transform="scale(0.7)"/>
 <polygon points="50,50 52,56 58,56 53,60 55,66 50,62 45,66 47,60 42,56 48,56" fill="#FFD700" transform="scale(0.5)"/>
 <polygon points="180,90 182,96 188,96 183,100 185,106 180,102 175,106 177,100 172,96 178,96" fill="#FFD700" transform="scale(0.6)"/>

 <!-- 月亮主体 -->
 <circle cx="100" cy="75" r="40" fill="#F0E68C"/>
 <circle cx="85" cy="65" r="35" fill="#191970"/>

 <!-- 月亮阴影部分（月牙效果） -->
 <circle cx="115" cy="75" r="38" fill="#F0E68C" opacity="0.9"/>
 <circle cx="125" cy="70" r="30" fill="#F0E68C" opacity="0.9"/>
 <circle cx="120" cy="85" r="25" fill="#F0E68C" opacity="0.9"/>

 <!-- 月亮上的环形山 -->
 <circle cx="95" cy="85" r="8" fill="#DAA520" opacity="0.5"/>
 <circle cx="110" cy="60" r="5" fill="#DAA520" opacity="0.4"/>
 <circle cx="105" cy="90" r="4" fill="#DAA520" opacity="0.3"/>
</svg>