<svg xmlns="http://www.w3.org/2000/svg" viewBox="0 0 200 150">
  <!-- 背景 -->
  <rect width="200" height="150" fill="#191970"/>
  <ellipse cx="100" cy="135" rx="80" ry="12" fill="#2F4F4F"/>

  <!-- 星星 -->
  <polygon points="40,30 42,36 48,36 43,40 45,46 40,42 35,46 37,40 32,36 38,36" fill="white"/>
  <polygon points="160,25 162,31 168,31 163,25 165,31 160,27 155,31 157,25 152,31 158,31" fill="white" transform="scale(0.8) translate(40,5)"/>
  <polygon points="30,60 31,63 34,63 32,65 33,68 30,66 27,68 28,65 26,63 29,63" fill="white"/>
  <polygon points="170,55 171,58 174,58 172,60 173,63 170,61 167,63 168,60 166,58 169,58" fill="white"/>
  <polygon points="150,90 151,93 154,93 152,95 153,98 150,96 147,98 148,95 146,93 149,93" fill="white"/>

  <!-- 月亮 -->
  <path d="M 100 30 Q 140 30 140 75 Q 140 120 100 120 Q 120 100 120 75 Q 120 50 100 30" fill="#F0E68C"/>

  <!-- 月亮表情 -->
  <circle cx="125" cy="65" r="3" fill="black"/>
  <circle cx="135" cy="65" r="3" fill="black"/>
  <path d="M 125 75 Q 130 80 135 75" stroke="black" stroke-width="2" fill="none" stroke-linecap="round"/>

  <!-- 月亮腮红 -->
  <ellipse cx="122" cy="72" rx="3" ry="2" fill="#FFB6C1" opacity="0.5"/>
  <ellipse cx="138" cy="72" rx="3" ry="2" fill="#FFB6C1" opacity="0.5"/>
</svg>
