<svg xmlns="http://www.w3.org/2000/svg" viewBox="0 0 200 150">
  <!-- 背景 -->
  <rect width="200" height="150" fill="#87CEEB"/>
  <ellipse cx="100" cy="135" rx="80" ry="12" fill="#90EE90"/>

  <!-- 猪身体 -->
  <ellipse cx="100" cy="90" rx="45" ry="35" fill="#FFB6C1"/>

  <!-- 猪头 -->
  <circle cx="100" cy="55" r="32" fill="#FFB6C1"/>

  <!-- 猪耳朵 -->
  <path d="M 75 35 L 65 10 L 85 30 Z" fill="#FF69B4"/>
  <path d="M 125 35 L 135 10 L 115 30 Z" fill="#FF69B4"/>

  <!-- 猪眼睛 -->
  <circle cx="88" cy="50" r="5" fill="black"/>
  <circle cx="112" cy="50" r="5" fill="black"/>
  <circle cx="89" cy="49" r="2" fill="white"/>
  <circle cx="113" cy="49" r="2" fill="white"/>

  <!-- 猪鼻子 -->
  <ellipse cx="100" cy="68" rx="18" ry="12" fill="#FF69B4"/>
  <ellipse cx="95" cy="68" rx="4" ry="6" fill="#C71585"/>
  <ellipse cx="105" cy="68" rx="4" ry="6" fill="#C71585"/>

  <!-- 猪腿 -->
  <rect x="75" y="115" width="10" height="20" rx="5" fill="#FFB6C1"/>
  <rect x="115" y="115" width="10" height="20" rx="5" fill="#FFB6C1"/>

  <!-- 猪尾巴 -->
  <path d="M 145 85 Q 160 80 158 70 Q 156 60 165 65" stroke="#FF69B4" stroke-width="4" fill="none" stroke-linecap="round"/>
</svg>
