<svg xmlns="http://www.w3.org/2000/svg" viewBox="0 0 200 150">
  <!-- 背景 -->
  <rect width="200" height="150" fill="#87CEEB"/>
  <ellipse cx="100" cy="135" rx="80" ry="12" fill="#90EE90"/>

  <!-- 彩虹 -->
  <path d="M 30 120 Q 100 20 170 120" stroke="#FF0000" stroke-width="12" fill="none" stroke-linecap="round"/>
  <path d="M 30 120 Q 100 20 170 120" stroke="#FF8C00" stroke-width="10" fill="none" stroke-linecap="round"/>
  <path d="M 30 120 Q 100 20 170 120" stroke="#FFD700" stroke-width="8" fill="none" stroke-linecap="round"/>
  <path d="M 30 120 Q 100 20 170 120" stroke="#228B22" stroke-width="6" fill="none" stroke-linecap="round"/>
  <path d="M 30 120 Q 100 20 170 120" stroke="#0000FF" stroke-width="4" fill="none" stroke-linecap="round"/>
  <path d="M 30 120 Q 100 20 170 120" stroke="#9370DB" stroke-width="2" fill="none" stroke-linecap="round"/>

  <!-- 云朵 -->
  <ellipse cx="40" cy="115" rx="20" ry="12" fill="white"/>
  <ellipse cx="55" cy="110" rx="18" ry="14" fill="white"/>
  <ellipse cx="25" cy="110" rx="15" ry="10" fill="white"/>

  <ellipse cx="160" cy="115" rx="20" ry="12" fill="white"/>
  <ellipse cx="175" cy="110" rx="18" ry="14" fill="white"/>
  <ellipse cx="145" cy="110" rx="15" ry="10" fill="white"/>
</svg>
