<svg xmlns="http://www.w3.org/2000/svg" viewBox="0 0 200 150">
  <!-- 背景 -->
  <rect width="200" height="150" fill="#87CEEB"/>
  <ellipse cx="100" cy="135" rx="80" ry="12" fill="#90EE90"/>

  <!-- 绵羊身体（羊毛） -->
  <circle cx="85" cy="85" r="18" fill="white"/>
  <circle cx="100" cy="75" r="18" fill="white"/>
  <circle cx="115" cy="85" r="18" fill="white"/>
  <circle cx="100" cy="95" r="18" fill="white"/>
  <circle cx="85" cy="100" r="16" fill="white"/>
  <circle cx="115" cy="100" r="16" fill="white"/>
  <circle cx="70" cy="90" r="15" fill="white"/>
  <circle cx="130" cy="90" r="15" fill="white"/>

  <!-- 绵羊头 -->
  <ellipse cx="100" cy="55" rx="22" ry="25" fill="#333"/>

  <!-- 绵羊耳朵 -->
  <ellipse cx="78" cy="55" rx="10" ry="6" fill="#333"/>
  <ellipse cx="122" cy="55" rx="10" ry="6" fill="#333"/>

  <!-- 绵羊眼睛 -->
  <circle cx="93" cy="50" r="5" fill="white"/>
  <circle cx="107" cy="50" r="5" fill="white"/>
  <circle cx="93" cy="50" r="2.5" fill="black"/>
  <circle cx="107" cy="50" r="2.5" fill="black"/>

  <!-- 绵羊腿 -->
  <rect x="80" y="115" width="8" height="20" rx="3" fill="#333"/>
  <rect x="112" y="115" width="8" height="20" rx="3" fill="#333"/>
</svg>
