<svg xmlns="http://www.w3.org/2000/svg" viewBox="0 0 200 150">
  <!-- 背景 -->
  <rect width="200" height="150" fill="#87CEEB"/>
  <ellipse cx="100" cy="135" rx="80" ry="12" fill="#90EE90"/>

  <!-- 太阳光芒 -->
  <line x1="100" y1="20" x2="100" y2="5" stroke="#FFD700" stroke-width="4" stroke-linecap="round"/>
  <line x1="100" y1="130" x2="100" y2="145" stroke="#FFD700" stroke-width="4" stroke-linecap="round"/>
  <line x1="50" y1="75" x2="35" y2="75" stroke="#FFD700" stroke-width="4" stroke-linecap="round"/>
  <line x1="150" y1="75" x2="165" y2="75" stroke="#FFD700" stroke-width="4" stroke-linecap="round"/>
  <line x1="65" y1="40" x2="55" y2="25" stroke="#FFD700" stroke-width="4" stroke-linecap="round"/>
  <line x1="135" y1="40" x2="145" y2="25" stroke="#FFD700" stroke-width="4" stroke-linecap="round"/>
  <line x1="65" y1="110" x2="55" y2="125" stroke="#FFD700" stroke-width="4" stroke-linecap="round"/>
  <line x1="135" y1="110" x2="145" y2="125" stroke="#FFD700" stroke-width="4" stroke-linecap="round"/>

  <!-- 太阳主体 -->
  <circle cx="100" cy="75" r="35" fill="#FFD700"/>

  <!-- 太阳笑脸 -->
  <circle cx="90" cy="70" r="4" fill="black"/>
  <circle cx="110" cy="70" r="4" fill="black"/>
  <path d="M 90 85 Q 100 95 110 85" stroke="black" stroke-width="3" fill="none" stroke-linecap="round"/>

  <!-- 太阳腮红 -->
  <ellipse cx="82" cy="78" rx="4" ry="3" fill="#FF8C00" opacity="0.5"/>
  <ellipse cx="118" cy="78" rx="4" ry="3" fill="#FF8C00" opacity="0.5"/>
</svg>
