<svg xmlns="http://www.w3.org/2000/svg" viewBox="0 0 200 150">
  <!-- 背景 -->
  <rect width="200" height="150" fill="#87CEEB"/>
  <ellipse cx="100" cy="135" rx="80" ry="12" fill="#90EE90"/>

  <!-- 伞柄 -->
  <path d="M 100 60 L 100 125" stroke="#8B4513" stroke-width="4" stroke-linecap="round"/>
  <path d="M 100 125 Q 100 140 115 140" stroke="#8B4513" stroke-width="4" fill="none" stroke-linecap="round"/>

  <!-- 伞面 -->
  <path d="M 40 70 Q 100 20 160 70" fill="#FF0000"/>
  <path d="M 40 70 Q 70 50 100 70" fill="#FF8C00"/>
  <path d="M 100 70 Q 130 50 160 70" fill="#FFD700"/>

  <!-- 伞面边缘 -->
  <path d="M 40 70 Q 45 75 50 70" fill="#FF0000"/>
  <path d="M 70 60 Q 75 65 80 60" fill="#FF8C00"/>
  <path d="M 100 50 Q 105 55 110 50" fill="#FF0000"/>
  <path d="M 120 60 Q 125 65 130 60" fill="#FFD700"/>
  <path d="M 150 70 Q 155 75 160 70" fill="#FFD700"/>

  <!-- 伞顶 -->
  <line x1="100" y1="35" x2="100" y2="25" stroke="#8B4513" stroke-width="3" stroke-linecap="round"/>
</svg>
